<svg preserveAspectRatio="none" width="100%" height="100%" overflow="visible" style="display: block;" viewBox="0 0 100 100" fill="none" xmlns="http://www.w3.org/2000/svg">
<g id="icon-4">
<rect id="Rectangle 37130" x="1.5" y="1.5" width="97" height="97" rx="14.5" stroke="var(--stroke-0, black)" stroke-width="3"/>
<path id="Rectangle 37137" d="M39.75 24.5C47.482 24.5 53.75 30.768 53.75 38.5V69.0752C53.75 69.8621 53.1121 70.5 52.3252 70.5C48.8051 70.5 45.7789 72.9963 45.1094 76.4521L42.8896 87.9102C42.5983 89.4138 41.2816 90.5 39.75 90.5C38.2184 90.5 36.9017 89.4138 36.6104 87.9102L34.3906 76.4521C33.7211 72.9963 30.6949 70.5 27.1748 70.5C26.3879 70.5 25.75 69.8621 25.75 69.0752V38.5C25.75 30.768 32.018 24.5 39.75 24.5Z" stroke="var(--stroke-0, black)" stroke-width="3"/>
<path id="Rectangle 37139" d="M65.25 48.5C70.1377 48.5 74.2186 52.2271 74.6611 57.0947L76.5439 77.8027C76.578 78.1771 76.2832 78.5 75.9072 78.5C74.2477 78.5001 72.7987 79.6227 72.3838 81.2295L69.6494 91.8262C69.2521 93.3656 68.0785 94.585 66.5557 95.042C65.7041 95.2975 64.7959 95.2975 63.9443 95.042C62.4215 94.585 61.2479 93.3656 60.8506 91.8262L58.1162 81.2295C57.7013 79.6228 56.2523 78.5001 54.5928 78.5C54.2168 78.5 53.922 78.1771 53.9561 77.8027L55.8389 57.0947C56.2814 52.2271 60.3623 48.5 65.25 48.5Z" stroke="var(--stroke-0, black)" stroke-width="3"/>
<path id="Rectangle 37138" d="M39.75 19.5C41.9591 19.5 43.75 17.7091 43.75 15.5C43.75 13.2909 41.9591 11.5 39.75 11.5C37.5409 11.5 35.75 13.2909 35.75 15.5C35.75 17.7091 37.5409 19.5 39.75 19.5Z" stroke="var(--stroke-0, black)" stroke-width="3"/>
<path id="Rectangle 37140" d="M65.25 42.5C66.6307 42.5 67.75 41.3807 67.75 40V39C67.75 37.6193 66.6307 36.5 65.25 36.5C63.8693 36.5 62.75 37.6193 62.75 39V40C62.75 41.3807 63.8693 42.5 65.25 42.5Z" stroke="var(--stroke-0, black)" stroke-width="3"/>
</g>
</svg>
