<svg preserveAspectRatio="none" width="100%" height="100%" overflow="visible" style="display: block;" viewBox="0 0 100.122 100" fill="none" xmlns="http://www.w3.org/2000/svg">
<g id="icon-2">
<rect id="Rectangle 37130" x="1.5" y="1.5" width="97" height="97" rx="14.5" stroke="var(--stroke-0, black)" stroke-width="3"/>
<path id="Union" d="M99.0609 64.0004L98.5512 63.4906C93.3484 58.2878 92.691 50.247 94.5185 43.1197C98.1799 28.8395 94.4212 13.0496 83.2415 1.86986" stroke="var(--stroke-0, black)" stroke-width="3"/>
<path id="Union_2" d="M96.25 90.5561L83.8683 78.1744C78.6655 72.9716 70.6246 72.3143 63.4973 74.1417C49.2171 77.8032 33.4272 74.0444 22.2475 62.8647C5.40421 46.0214 5.40421 18.713 22.2475 1.86967" stroke="var(--stroke-0, black)" stroke-width="3"/>
<circle id="Ellipse 1490" cx="49.75" cy="50" r="23.5" stroke="var(--stroke-0, black)" stroke-width="3"/>
<path id="Ellipse 1491" d="M63.75 70.0017C57.6778 65.4407 53.75 58.179 53.75 49.9999C53.75 41.8208 57.6778 34.5591 63.75 29.998" stroke="var(--stroke-0, black)" stroke-width="3"/>
<path id="Ellipse 1492" d="M35.75 29.9983C41.8222 34.5593 45.75 41.821 45.75 50.0001C45.75 58.1792 41.8222 65.4409 35.75 70.002" stroke="var(--stroke-0, black)" stroke-width="3"/>
<line id="Line 233" x1="26.75" y1="49.5" x2="74.75" y2="49.5" stroke="var(--stroke-0, black)" stroke-width="3"/>
</g>
</svg>
