<svg width="100" height="100" viewBox="0 0 100 100" fill="none" xmlns="http://www.w3.org/2000/svg">
<rect x="1.5" y="1.5" width="97" height="97" rx="14.5" stroke="black" stroke-width="3"/>
<path d="M61.168 51.8L61.168 86.8C61.168 88.733 59.601 90.3 57.668 90.3L32.668 90.3C30.735 90.3 29.168 88.733 29.168 86.8L29.168 51.8C29.168 49.8671 30.735 48.3 32.668 48.3L57.668 48.3C59.601 48.3 61.168 49.8671 61.168 51.8Z" stroke="black" stroke-width="3"/>
<path d="M91.5394 34.608L96.8875 69.197C97.1828 71.1073 95.8737 72.8953 93.9634 73.1907L69.2569 77.0107C67.3466 77.3061 65.5586 75.9969 65.2632 74.0866L59.9152 39.4976C59.6198 37.5873 60.929 35.7993 62.8393 35.5039L87.5457 31.6839C89.456 31.3885 91.2441 32.6977 91.5394 34.608Z" stroke="black" stroke-width="3"/>
<path d="M43.6367 28.6104L34.2862 62.3383C33.7698 64.201 31.8411 65.2924 29.9784 64.776L5.88704 58.0971C4.0243 57.5806 2.93289 55.652 3.44931 53.7892L12.7998 20.0614C13.3162 18.1986 15.2449 17.1072 17.1076 17.6236L41.199 24.3026C43.0617 24.819 44.1531 26.7477 43.6367 28.6104Z" stroke="black" stroke-width="3"/>
<rect x="41.668" y="40.8" width="6" height="17" rx="3" stroke="black" stroke-width="3"/>
<rect x="70.5859" y="26.7168" width="6" height="17" rx="3" transform="rotate(-8.78928 70.5859 26.7168)" stroke="black" stroke-width="3"/>
<rect x="27.7852" y="12.8" width="6" height="17" rx="3" transform="rotate(15.4952 27.7852 12.8)" stroke="black" stroke-width="3"/>
</svg>
