<svg width="100" height="100" viewBox="0 0 100 100" fill="none" xmlns="http://www.w3.org/2000/svg">
<path d="M22.2012 31.5C29.5459 31.5001 35.4999 37.4541 35.5 44.7988V98.5H22.6797L13.2578 59.6465L12.9795 58.5H3.13379L9.68848 40.2939C11.5881 35.0177 16.5934 31.5 22.2012 31.5Z" stroke="#171311" stroke-width="3"/>
<path d="M49.7842 41.5C41.8952 41.5003 35.5 47.8961 35.5 55.7852V98.5H49.1826L52.5127 72.8076L52.5898 72.2139L53.0537 71.8359L57.0537 68.5859L57.999 67.8184L58.9443 68.585L70.416 77.8809C72.1079 79.2519 74.2198 80 76.3975 80H82.8789L85.2236 77.6553L77.0254 74.9229L76.4717 74.7383L68.6885 60.7285L68.6846 60.7207L68.6797 60.7129L62.3535 48.9971C59.8594 44.3787 55.033 41.5 49.7842 41.5Z" stroke="#171311" stroke-width="3"/>
<rect x="20.5" y="11.5" width="10" height="15" rx="5" stroke="#171311" stroke-width="3"/>
<rect x="-1.5" y="1.5" width="10" height="15" rx="5" transform="matrix(-1 0 0 1 49 20)" stroke="#171311" stroke-width="3"/>
<rect x="1.5" y="1.5" width="97" height="97" rx="14.5" stroke="black" stroke-width="3"/>
<path d="M100 82H79C70.1634 82 63 89.1634 63 98V100" stroke="black" stroke-width="3"/>
</svg>
