<svg width="43" height="43" viewBox="0 0 43 43" fill="none" xmlns="http://www.w3.org/2000/svg">
<g clip-path="url(#clip0_6015_132)">
<path d="M-0.000366211 2.11205C-0.000366211 0.945178 0.944751 6.10352e-05 2.11163 6.10352e-05H40.1275C41.2944 6.10352e-05 42.2395 0.945178 42.2395 2.11205V40.1279C42.2395 41.2948 41.2944 42.2399 40.1275 42.2399H2.11163C0.944751 42.2399 -0.000366211 41.2948 -0.000366211 40.1279V2.11205Z" fill="#4B57A9"/>
<path d="M7.20068 19.9634L9.92273 15.2687L18.0971 19.9797L15.3832 24.6743L7.20068 19.9634Z" fill="url(#paint0_linear_6015_132)"/>
<path d="M9.93732 29.4339L12.6512 24.7392L20.8337 29.4502L18.1116 34.1448L9.93732 29.4339Z" fill="url(#paint1_linear_6015_132)"/>
<path d="M21.6603 7.20038L9.7674 13.0032C8.2961 15.057 7.41333 17.4612 7.20081 19.9796L28.7634 9.45793C26.6382 8.08058 24.1861 7.29818 21.6603 7.20038Z" fill="url(#paint2_linear_6015_132)"/>
<path d="M8.57215 27.2415C8.95632 28.0157 9.40588 28.7492 9.92083 29.442L34.5895 17.4044C34.1318 15.7418 33.3634 14.177 32.3254 12.7915L7.65668 24.8291C7.88555 25.6604 8.18798 26.4672 8.57215 27.2415Z" fill="url(#paint3_linear_6015_132)"/>
<path d="M20.5802 35.0403L32.4732 29.2375C33.9444 27.1837 34.8272 24.7794 35.0397 22.261L13.4853 32.7827C15.6023 34.1601 18.0545 34.9425 20.5802 35.0403Z" fill="url(#paint4_linear_6015_132)"/>
</g>
<defs>
<linearGradient id="paint0_linear_6015_132" x1="7.20166" y1="19.9733" x2="18.1004" y2="19.9733" gradientUnits="userSpaceOnUse">
<stop stop-color="#89BAD1"/>
<stop offset="0.43" stop-color="#84B4CA"/>
<stop offset="1" stop-color="#79A4B8"/>
</linearGradient>
<linearGradient id="paint1_linear_6015_132" x1="9.93419" y1="29.4415" x2="20.833" y2="29.4415" gradientUnits="userSpaceOnUse">
<stop stop-color="#89BAD1"/>
<stop offset="0.43" stop-color="#84B4CA"/>
<stop offset="1" stop-color="#79A4B8"/>
</linearGradient>
<linearGradient id="paint2_linear_6015_132" x1="7.19855" y1="13.5892" x2="28.7612" y2="13.5892" gradientUnits="userSpaceOnUse">
<stop stop-color="#A0D8F2"/>
<stop offset="0.17" stop-color="#A7DBEB"/>
<stop offset="0.43" stop-color="#BBE3D7"/>
<stop offset="0.73" stop-color="#DBF1B7"/>
<stop offset="1" stop-color="#FEFF94"/>
</linearGradient>
<linearGradient id="paint3_linear_6015_132" x1="7.65606" y1="21.1208" x2="34.584" y2="21.1208" gradientUnits="userSpaceOnUse">
<stop stop-color="#A0D8F2"/>
<stop offset="0.17" stop-color="#A7DBEB"/>
<stop offset="0.43" stop-color="#BBE3D7"/>
<stop offset="0.73" stop-color="#DBF1B7"/>
<stop offset="1" stop-color="#FEFF94"/>
</linearGradient>
<linearGradient id="paint4_linear_6015_132" x1="13.4847" y1="28.6531" x2="35.044" y2="28.6531" gradientUnits="userSpaceOnUse">
<stop stop-color="#A0D8F2"/>
<stop offset="0.17" stop-color="#A7DBEB"/>
<stop offset="0.43" stop-color="#BBE3D7"/>
<stop offset="0.73" stop-color="#DBF1B7"/>
<stop offset="1" stop-color="#FEFF94"/>
</linearGradient>
<clipPath id="clip0_6015_132">
<rect width="42.2399" height="42.2399" rx="10" fill="white"/>
</clipPath>
</defs>
</svg>
