<svg width="40" height="40" viewBox="0 0 40 40" fill="none" xmlns="http://www.w3.org/2000/svg">
<rect width="40.0001" height="40.0001" rx="10" fill="#009FC1"/>
<path d="M32.2668 23.6164C32.4833 23.3666 32.6501 23.0831 32.7667 22.7831C32.8831 22.4831 32.9165 22.1498 32.8997 21.833C32.8829 21.5164 32.7996 21.1828 32.6496 20.8996C32.4996 20.6164 32.2997 20.3496 32.0496 20.1496C31.7995 19.9497 31.4995 19.7829 31.1995 19.6996C30.8995 19.6164 30.5664 19.583 30.2496 19.6329C30.2162 19.6329 30.1997 19.6497 30.1663 19.6497C30.0828 19.6497 29.9995 19.6828 29.9162 19.6996H29.8829C29.783 19.7164 29.683 19.7664 29.5997 19.7997C29.5829 19.7997 29.5829 19.8165 29.5663 19.8165H29.5495C29.4662 19.8496 29.3995 19.8998 29.3162 19.9497C29.2996 19.9497 29.2997 19.9665 29.2829 19.9665C29.0995 20.0831 28.9327 20.2331 28.7995 20.3831V20.4C28.6663 20.55 28.5497 20.7333 28.4496 20.9332H24.0662L22.4829 7.99988H20.2164L15.1497 27.5498L13.4997 20.5497H7.66656V22.6497H11.7998L13.9831 31.8496H16.1832L20.9498 13.8664L22.1666 23.033H28.4666C28.5499 23.2163 28.6666 23.3995 28.8166 23.5663V23.5828C28.9666 23.7494 29.1165 23.8828 29.2999 23.9995L29.3167 24.0163C29.3832 24.0662 29.4667 24.1161 29.55 24.1495L29.5668 24.1663C29.5834 24.1828 29.5833 24.1828 29.6001 24.1828C29.7 24.2162 29.7832 24.2495 29.8833 24.2829H29.9167L30.1668 24.3328C30.2002 24.3496 30.2167 24.3496 30.2501 24.3496C30.3501 24.3664 30.4498 24.3664 30.5499 24.3664H30.5501C30.8669 24.3664 31.1834 24.2997 31.4834 24.1665C31.7834 24.0496 32.0501 23.8497 32.2668 23.6164Z" fill="white"/>
</svg>
