<svg width="42" height="42" viewBox="0 0 42 42" fill="none" xmlns="http://www.w3.org/2000/svg">
<g clip-path="url(#clip0_6081_2974)">
<path d="M0 2.11199C0 0.945117 0.93975 0 2.1 0H39.9C41.0602 0 42 0.945117 42 2.11199V40.1279C42 41.2948 41.0602 42.2399 39.9 42.2399H2.1C0.93975 42.2399 0 41.2948 0 40.1279V2.11199Z" fill="#936DFF"/>
<path d="M27.3375 14.1492C26.8944 14.6371 26.1196 14.5928 25.6019 14.1862C25.2785 13.9317 24.9163 13.7121 24.5162 13.5262C23.7235 13.1239 22.9538 12.9232 22.2062 12.9232C21.8219 12.9232 21.425 12.9581 21.0176 13.0299C20.6333 13.1006 20.2816 13.2421 19.9645 13.4555C19.6484 13.6445 19.3765 13.9053 19.1497 14.2359C18.946 14.5432 18.8441 14.9455 18.8441 15.4429C18.8441 15.8684 18.9229 16.2232 19.0814 16.5073C19.2631 16.7903 19.5119 17.0395 19.829 17.2517C20.1681 17.465 20.565 17.6657 21.0176 17.8558C21.4701 18.0205 21.9804 18.198 22.5464 18.388C23.3612 18.6721 24.2107 18.991 25.0937 19.3458C25.9768 19.6774 26.7811 20.1262 27.5056 20.6943C28.2301 21.2614 28.8296 21.971 29.3052 22.8232C29.7809 23.6511 30.0182 24.6923 30.0182 25.9458C30.0182 27.3883 29.7578 28.6428 29.237 29.7073C28.7393 30.7474 28.06 31.6112 27.199 32.2976C26.339 32.983 25.3541 33.492 24.2442 33.8236C23.1344 34.1541 21.991 34.3198 20.8139 34.3198C19.093 34.3198 17.4287 34.0125 15.8212 33.3969C14.5486 32.8921 13.446 32.2226 12.5136 31.3905C12.101 31.022 12.1084 30.3873 12.4874 29.9839L14.7796 27.5467C15.2206 27.0778 15.9723 27.118 16.4543 27.5456C16.8837 27.9279 17.3752 28.269 17.9264 28.5721C18.9008 29.0684 19.8626 29.3166 20.8139 29.3166C21.2444 29.3166 21.6633 29.269 22.0707 29.175C22.4781 29.08 22.8288 28.9268 23.1239 28.7135C23.441 28.5002 23.6898 28.2161 23.8704 27.8613C24.0521 27.5065 24.1424 27.081 24.1424 26.5847C24.1424 26.1116 24.029 25.7092 23.8033 25.3776C23.5765 25.0471 23.2478 24.7515 22.8184 24.4906C22.4099 24.2066 21.8891 23.9584 21.2559 23.7461C20.6438 23.5096 19.9424 23.2604 19.1497 23.0006C18.38 22.7408 17.6209 22.4325 16.8743 22.0777C16.1498 21.7228 15.4925 21.2741 14.9045 20.7292C14.3375 20.1621 13.8734 19.4873 13.5112 18.707C13.172 17.9023 13.0019 16.9329 13.0019 15.7977C13.0019 14.4017 13.2739 13.2073 13.8178 12.2136C14.3606 11.2199 15.0735 10.4036 15.9566 9.76476C16.8396 9.12694 17.8361 8.66547 18.946 8.3814C20.0558 8.07411 21.1761 7.91992 22.308 7.91992C23.6667 7.91992 25.0486 8.17971 26.4524 8.70032C27.5434 9.09843 28.5293 9.64225 29.4092 10.3318C29.8596 10.6856 29.8796 11.3466 29.4953 11.7711L27.3375 14.1492Z" fill="white"/>
</g>
<defs>
<clipPath id="clip0_6081_2974">
<rect width="42" height="42" rx="10" fill="white"/>
</clipPath>
</defs>
</svg>
