<svg width="42" height="43" viewBox="0 0 42 43" fill="none" xmlns="http://www.w3.org/2000/svg">
<g clip-path="url(#clip0_6015_143)">
<path d="M-0.000366211 2.11199C-0.000366211 0.945117 0.939384 0 2.09963 0H39.8996C41.0599 0 41.9996 0.945117 41.9996 2.11199V40.1279C41.9996 41.2948 41.0599 42.2399 39.8996 42.2399H2.09963C0.939384 42.2399 -0.000366211 41.2948 -0.000366211 40.1279V2.11199Z" fill="#567186"/>
<path d="M24.1912 32.4495V23.1528L31.5177 29.2415L28.5841 29.7194L30.4737 33.4211L28.2826 34.4032L26.4678 30.6267L24.1912 32.4495Z" fill="white"/>
<path fill-rule="evenodd" clip-rule="evenodd" d="M33.6605 14.8199C34.2916 15.0938 34.2916 16.01 33.6605 16.2838L28.2894 18.6139V22.3375C28.2894 22.662 28.2662 22.9745 28.222 23.274L25.9603 21.3248V19.6246L20.5277 21.9821L15.0941 19.6237V22.3375C15.0941 23.5856 15.625 24.4768 16.5365 25.1373C17.5174 25.848 18.9596 26.2808 20.5277 26.2809C21.0641 26.2809 21.5861 26.2305 22.0794 26.1354V28.5514C19.6197 28.9164 16.9441 28.4015 15.0941 27.0094V27.5924C15.8112 29.3617 16.5755 31.4339 16.5755 32.2477C16.5626 32.2603 15.3511 33.4352 13.8587 33.4352C12.3584 33.4351 11.1419 32.2477 11.1419 32.2477C11.1419 31.3799 12.0115 29.0811 12.766 27.2448V22.3668C12.7659 22.3571 12.765 22.3473 12.765 22.3375V18.6129L7.39488 16.2838C6.7638 16.01 6.7638 15.0938 7.39488 14.8199L20.5277 9.1217L33.6605 14.8199ZM11.6752 15.5514L14.0277 16.5719C14.1003 16.5188 14.1798 16.4731 14.266 16.4371L20.9359 13.6539C21.5314 13.4055 22.2108 13.6986 22.4535 14.3082C22.6961 14.9178 22.4103 15.6135 21.8148 15.8619L17.0101 17.8658L20.5277 19.3922L29.3802 15.5514L20.5277 11.7115L11.6752 15.5514Z" fill="white"/>
</g>
<defs>
<clipPath id="clip0_6015_143">
<rect width="42" height="43" rx="10" fill="white"/>
</clipPath>
</defs>
</svg>
